<?xml version="1.0" standalone="no"?>
<!DOCTYPE svg PUBLIC "-//W3C//DTD SVG 20010904//EN"
 "http://www.w3.org/TR/2001/REC-SVG-20010904/DTD/svg10.dtd">
<svg version="1.0" xmlns="http://www.w3.org/2000/svg"
 width="300.000000pt" height="300.000000pt" viewBox="0 0 300.000000 300.000000"
 preserveAspectRatio="xMidYMid meet">
<metadata>
Created by potrace 1.10, written by Peter Selinger 2001-2011
</metadata>
<g transform="translate(0.000000,300.000000) scale(0.100000,-0.100000)"
fill="#000000" stroke="none">
<path d="M1855 2256 c-95 -23 -158 -69 -191 -140 -25 -54 -31 -115 -14 -146 9
-16 1 -28 -47 -75 -31 -30 -57 -55 -57 -55 -1 0 -1 59 -1 130 0 105 -3 133
-15 140 -23 14 -47 12 -65 -7 -14 -14 -16 -37 -13 -175 1 -87 0 -158 -3 -158
-4 0 -13 10 -22 23 -8 13 -31 34 -51 47 -32 22 -35 29 -30 54 35 162 -83 273
-298 284 -126 6 -133 1 -124 -88 18 -201 132 -332 274 -317 26 3 59 8 73 12
22 6 34 -2 87 -54 75 -74 88 -99 94 -182 l5 -65 -74 37 c-67 34 -78 44 -112
101 -47 77 -82 96 -112 59 -19 -23 -19 -24 1 -58 11 -19 20 -36 20 -39 0 -2
-53 -4 -118 -4 -124 0 -142 -6 -142 -45 0 -39 18 -45 133 -45 l109 0 -26 -31
c-21 -25 -26 -41 -26 -85 0 -30 -3 -54 -6 -54 -3 0 -17 9 -31 20 -35 27 -91
42 -114 29 -25 -13 -24 -44 1 -69 l20 -20 -36 -33 c-55 -48 -84 -117 -84 -203
0 -206 191 -341 391 -277 73 24 150 99 175 171 10 28 22 52 27 52 4 0 5 -40 1
-89 -6 -85 -6 -89 17 -105 30 -21 35 -20 59 4 19 19 20 33 20 320 l0 300 37
41 c38 42 126 99 154 99 28 0 76 -62 83 -107 3 -24 4 -43 2 -43 -3 0 -22 11
-42 25 -21 14 -49 28 -62 32 -54 13 -81 -40 -39 -74 l25 -19 -41 -34 c-86 -72
-118 -227 -68 -332 52 -108 148 -168 271 -168 161 0 281 107 297 264 9 85 -18
158 -80 220 l-52 52 25 21 c22 19 23 23 12 48 -11 24 -17 27 -48 22 -20 -3
-51 -18 -69 -32 -19 -14 -37 -25 -40 -25 -4 0 -4 18 0 40 5 32 2 49 -19 86
-14 26 -26 47 -26 48 0 0 46 1 101 1 91 0 103 2 115 20 12 18 11 24 -2 43 -14
21 -23 22 -140 22 l-125 0 20 29 c35 48 23 91 -25 91 -26 0 -65 -45 -89 -104
-11 -27 -26 -42 -53 -53 -20 -8 -58 -30 -84 -49 l-47 -33 6 67 c7 81 37 134
119 212 40 38 59 50 72 45 9 -4 40 -10 69 -12 130 -13 237 105 262 290 15 111
11 117 -87 116 -42 0 -99 -6 -127 -13z m170 -30 c18 -13 19 -19 8 -81 -16 -92
-55 -167 -105 -204 -23 -17 -47 -31 -52 -31 -6 0 -2 7 9 16 58 43 67 56 63 85
-3 16 -1 29 3 29 15 0 39 32 39 51 0 27 -18 24 -22 -3 -2 -15 -11 -24 -25 -26
-30 -4 -29 5 2 30 26 20 33 38 15 38 -16 0 -61 -51 -54 -61 3 -5 -13 -16 -36
-25 -45 -18 -93 -68 -88 -93 2 -9 19 -24 38 -34 l35 -19 -69 6 c-83 7 -102 -2
-174 -78 -93 -98 -130 -222 -82 -274 12 -12 22 -22 24 -22 7 0 141 71 157 83
8 7 32 38 52 70 20 31 42 57 48 57 6 0 9 -6 6 -12 -23 -62 -16 -72 60 -93 26
-7 39 -14 29 -14 -44 -2 -68 -49 -47 -89 5 -10 12 -38 16 -62 3 -25 15 -54 26
-65 17 -17 22 -18 51 -6 18 7 43 15 56 18 21 5 22 3 12 -22 -9 -24 -7 -32 17
-62 35 -44 73 -105 72 -118 0 -5 -8 5 -18 23 -23 45 -95 100 -139 108 -30 6
-39 3 -58 -20 l-23 -26 -25 25 c-32 32 -63 32 -110 0 -52 -35 -62 -31 -30 11
23 30 26 39 16 55 -7 10 -12 22 -12 25 0 8 35 0 77 -17 28 -11 34 -11 52 6 56
49 -19 185 -101 185 -61 0 -151 -62 -199 -139 l-29 -45 0 -268 c0 -172 -4
-268 -10 -268 -5 0 -10 21 -10 47 0 46 -20 83 -45 83 -16 0 -43 -30 -63 -71
-10 -18 -23 -35 -31 -37 -8 -3 -4 9 10 28 20 26 25 46 27 114 4 76 2 87 -22
125 -29 46 -86 87 -132 97 -25 5 -35 0 -61 -26 -30 -30 -31 -31 -38 -11 -15
48 -75 50 -136 5 -37 -27 -59 -32 -34 -8 37 37 46 60 35 89 -10 25 -9 27 12
22 13 -3 38 -11 56 -18 29 -12 34 -11 52 6 11 11 24 44 30 73 5 29 15 62 21
74 10 19 8 25 -15 45 -17 14 -41 24 -64 24 -28 1 -23 3 22 9 73 9 102 34 87
73 -18 46 12 33 45 -20 16 -26 37 -55 48 -64 25 -24 142 -70 159 -63 34 13 48
103 26 161 -17 45 -89 132 -135 164 -41 28 -47 29 -112 23 -78 -7 -129 5 -158
38 -18 21 -18 21 14 -1 18 -13 50 -25 71 -28 32 -4 41 -1 54 17 17 25 13 39
-20 75 -45 49 -45 56 0 22 58 -44 71 -45 94 -11 14 22 15 33 6 67 -17 61 -7
58 11 -3 10 -33 13 -68 10 -92 -6 -37 -4 -41 47 -88 65 -60 84 -68 110 -44 15
14 19 31 20 88 l0 71 15 -40 c30 -81 58 -80 135 2 l47 50 -6 71 c-3 51 -1 72
7 72 7 0 10 -10 7 -25 -3 -17 3 -34 17 -51 21 -24 23 -25 54 -9 31 15 129 110
146 141 15 26 -1 61 -29 68 -33 9 -25 17 23 26 61 12 98 11 118 -4z m-200
-136 c-50 -50 -91 -86 -93 -80 -9 25 10 78 36 103 28 27 106 66 132 67 8 0
-26 -41 -75 -90z m-716 44 c2 -2 -5 -14 -17 -27 -28 -30 -28 -39 4 -76 29 -35
21 -40 -16 -11 -43 34 -74 22 -82 -30 l-4 -25 -13 30 c-8 17 -16 52 -19 79 -7
65 11 79 88 71 30 -3 56 -8 59 -11z m56 -63 c49 -22 91 -69 100 -111 4 -18 5
-33 3 -35 -2 -2 -26 17 -53 43 -28 26 -69 64 -93 85 -37 32 -39 37 -20 37 13
0 41 -9 63 -19z m23 -219 c-33 -6 -101 41 -129 88 -59 97 -46 99 53 5 70 -67
90 -91 76 -93z m742 158 c0 -13 -69 -57 -102 -65 -38 -10 -35 2 10 41 35 32
92 46 92 24z m-110 -727 c0 -60 49 -95 80 -58 7 9 13 34 12 55 -2 47 4 49 67
15 70 -38 96 -83 96 -166 0 -59 -4 -73 -30 -111 -89 -126 -275 -122 -351 7
-60 102 -31 214 71 276 44 28 55 24 55 -18z m-714 -83 c-9 -48 8 -80 43 -80
36 0 54 26 49 73 -2 29 0 32 22 29 45 -5 100 -50 122 -99 57 -128 -30 -271
-172 -281 -76 -6 -138 21 -179 79 -80 110 -54 230 64 292 47 25 58 22 51 -13z
m606 -253 c18 -14 30 -29 26 -32 -16 -17 -98 81 -113 135 -3 14 7 2 24 -26 17
-29 45 -63 63 -77z m393 73 c-12 -38 -66 -90 -120 -115 -28 -14 -58 -25 -66
-24 -8 0 3 7 24 14 53 20 112 69 138 115 24 42 36 47 24 10z m-1099 -169 l39
-33 -34 19 c-39 21 -86 76 -96 113 -5 16 3 9 22 -20 16 -25 47 -60 69 -79z
m804 45 c32 -10 38 -15 20 -15 -14 0 -38 6 -55 14 -40 18 -21 18 35 1z m-473
-33 c-20 -23 -77 -57 -77 -46 1 10 70 63 83 63 6 0 3 -8 -6 -17z"/>
<path d="M1229 1476 c-36 -25 -69 -78 -69 -113 0 -27 28 -63 49 -63 10 0 32 7
47 15 44 23 54 19 48 -15 -5 -24 0 -38 28 -72 20 -24 47 -66 61 -95 36 -71 52
-79 43 -22 -9 56 -47 121 -87 149 l-30 22 20 20 c25 23 27 41 5 63 -19 18 -39
14 -103 -21 -24 -13 -45 -23 -47 -22 -1 2 1 23 6 48 6 31 18 53 39 72 30 27
31 27 73 12 24 -8 64 -29 90 -47 l48 -32 1 -110 c0 -60 4 -128 8 -150 l8 -40
11 28 c7 16 12 81 12 151 l0 122 -37 36 c-43 41 -103 74 -153 83 -28 5 -43 1
-71 -19z"/>
<path d="M2010 1193 c0 -66 -52 -148 -114 -180 -17 -9 -54 -16 -83 -17 -37 0
-48 -3 -37 -9 9 -5 41 -7 71 -4 93 10 166 86 172 180 1 26 0 47 -3 47 -3 0 -6
-8 -6 -17z"/>
<path d="M1291 1097 c-2 -93 -79 -176 -184 -197 l-42 -8 38 -1 c56 -2 127 33
158 77 35 48 52 112 40 143 -9 22 -10 20 -10 -14z"/>
</g>
</svg>
